<svg width="95" height="152" viewBox="0 0 95 152" fill="none" xmlns="http://www.w3.org/2000/svg">
<g opacity="0.4">
<line y1="-0.5" x2="18.4141" y2="-0.5" transform="matrix(0.700886 0.713273 -0.694043 0.719934 0.309082 1.57468)" stroke="#AA2DCA"/>
<line y1="-0.5" x2="18.4141" y2="-0.5" transform="matrix(0.700886 0.713273 -0.694043 0.719934 1.16339 50.7855)" stroke="#AA2DCA"/>
<line y1="-0.5" x2="18.4141" y2="-0.5" transform="matrix(0.700886 0.713273 -0.694043 0.719934 1.32587 100.714)" stroke="#AA2DCA"/>
<line y1="-0.5" x2="18.4141" y2="-0.5" transform="matrix(0.700886 0.713273 -0.694043 0.719934 0.736206 26.1801)" stroke="#AA2DCA"/>
<line y1="-0.5" x2="18.4141" y2="-0.5" transform="matrix(0.700886 0.713273 -0.694043 0.719934 1.59058 75.3909)" stroke="#AA2DCA"/>
<line y1="-0.5" x2="18.4141" y2="-0.5" transform="matrix(0.700886 0.713273 -0.694043 0.719934 1.75305 125.319)" stroke="#AA2DCA"/>
<line y1="-0.5" x2="17.944" y2="-0.5" transform="matrix(-0.694043 0.719934 -0.700886 -0.713273 13.1901 13.2616)" stroke="#AA2DCA"/>
<line y1="-0.5" x2="17.944" y2="-0.5" transform="matrix(-0.694043 0.719934 -0.700886 -0.713273 14.0445 62.4724)" stroke="#AA2DCA"/>
<line y1="-0.5" x2="17.944" y2="-0.5" transform="matrix(-0.694043 0.719934 -0.700886 -0.713273 14.207 112.401)" stroke="#AA2DCA"/>
<line y1="-0.5" x2="17.944" y2="-0.5" transform="matrix(-0.694043 0.719934 -0.700886 -0.713273 13.6173 37.867)" stroke="#AA2DCA"/>
<line y1="-0.5" x2="17.944" y2="-0.5" transform="matrix(-0.694043 0.719934 -0.700886 -0.713273 14.4717 87.0779)" stroke="#AA2DCA"/>
<line y1="-0.5" x2="17.944" y2="-0.5" transform="matrix(-0.694043 0.719934 -0.700886 -0.713273 14.6342 137.006)" stroke="#AA2DCA"/>
<line y1="-0.5" x2="18.4141" y2="-0.5" transform="matrix(0.700886 0.713273 -0.694043 0.719934 23.7004 2.52711)" stroke="#AA2DCA"/>
<line y1="-0.5" x2="18.4141" y2="-0.5" transform="matrix(0.700886 0.713273 -0.694043 0.719934 24.5548 51.7379)" stroke="#AA2DCA"/>
<line y1="-0.5" x2="18.4141" y2="-0.5" transform="matrix(0.700886 0.713273 -0.694043 0.719934 24.7173 101.666)" stroke="#AA2DCA"/>
<line y1="-0.5" x2="18.4141" y2="-0.5" transform="matrix(0.700886 0.713273 -0.694043 0.719934 24.1276 27.1325)" stroke="#AA2DCA"/>
<line y1="-0.5" x2="18.4141" y2="-0.5" transform="matrix(0.700886 0.713273 -0.694043 0.719934 24.982 76.3433)" stroke="#AA2DCA"/>
<line y1="-0.5" x2="18.4141" y2="-0.5" transform="matrix(0.700886 0.713273 -0.694043 0.719934 25.1445 126.272)" stroke="#AA2DCA"/>
<line y1="-0.5" x2="17.944" y2="-0.5" transform="matrix(-0.694043 0.719934 -0.700886 -0.713273 36.5815 14.214)" stroke="#AA2DCA"/>
<line y1="-0.5" x2="17.944" y2="-0.5" transform="matrix(-0.694043 0.719934 -0.700886 -0.713273 37.4359 63.4249)" stroke="#AA2DCA"/>
<line y1="-0.5" x2="17.944" y2="-0.5" transform="matrix(-0.694043 0.719934 -0.700886 -0.713273 37.5984 113.353)" stroke="#AA2DCA"/>
<line y1="-0.5" x2="17.944" y2="-0.5" transform="matrix(-0.694043 0.719934 -0.700886 -0.713273 37.0088 38.8195)" stroke="#AA2DCA"/>
<line y1="-0.5" x2="17.944" y2="-0.5" transform="matrix(-0.694043 0.719934 -0.700886 -0.713273 37.8632 88.0303)" stroke="#AA2DCA"/>
<line y1="-0.5" x2="17.944" y2="-0.5" transform="matrix(-0.694043 0.719934 -0.700886 -0.713273 38.0256 137.959)" stroke="#AA2DCA"/>
<line y1="-0.5" x2="18.4141" y2="-0.5" transform="matrix(0.700886 0.713273 -0.694043 0.719934 46.3422 2.2244)" stroke="#AA2DCA"/>
<line y1="-0.5" x2="18.4141" y2="-0.5" transform="matrix(0.700886 0.713273 -0.694043 0.719934 47.1965 51.4352)" stroke="#AA2DCA"/>
<line y1="-0.5" x2="18.4141" y2="-0.5" transform="matrix(0.700886 0.713273 -0.694043 0.719934 47.3591 101.364)" stroke="#AA2DCA"/>
<line y1="-0.5" x2="18.4141" y2="-0.5" transform="matrix(0.700886 0.713273 -0.694043 0.719934 46.7693 26.8298)" stroke="#AA2DCA"/>
<line y1="-0.5" x2="18.4141" y2="-0.5" transform="matrix(0.700886 0.713273 -0.694043 0.719934 47.6237 76.0406)" stroke="#AA2DCA"/>
<line y1="-0.5" x2="18.4141" y2="-0.5" transform="matrix(0.700886 0.713273 -0.694043 0.719934 47.7863 125.969)" stroke="#AA2DCA"/>
<line y1="-0.5" x2="17.944" y2="-0.5" transform="matrix(-0.694043 0.719934 -0.700886 -0.713273 59.2233 13.9113)" stroke="#AA2DCA"/>
<line y1="-0.5" x2="17.944" y2="-0.5" transform="matrix(-0.694043 0.719934 -0.700886 -0.713273 60.0776 63.1221)" stroke="#AA2DCA"/>
<line y1="-0.5" x2="17.944" y2="-0.5" transform="matrix(-0.694043 0.719934 -0.700886 -0.713273 60.2402 113.051)" stroke="#AA2DCA"/>
<line y1="-0.5" x2="17.944" y2="-0.5" transform="matrix(-0.694043 0.719934 -0.700886 -0.713273 59.6505 38.5167)" stroke="#AA2DCA"/>
<line y1="-0.5" x2="17.944" y2="-0.5" transform="matrix(-0.694043 0.719934 -0.700886 -0.713273 60.5049 87.7276)" stroke="#AA2DCA"/>
<line y1="-0.5" x2="17.944" y2="-0.5" transform="matrix(-0.694043 0.719934 -0.700886 -0.713273 60.6672 137.656)" stroke="#AA2DCA"/>
<line y1="-0.5" x2="18.4141" y2="-0.5" transform="matrix(0.700886 0.713273 -0.694043 0.719934 68.2535 1.93146)" stroke="#AA2DCA"/>
<line y1="-0.5" x2="18.4141" y2="-0.5" transform="matrix(0.700886 0.713273 -0.694043 0.719934 69.1079 51.1423)" stroke="#AA2DCA"/>
<line y1="-0.5" x2="18.4141" y2="-0.5" transform="matrix(0.700886 0.713273 -0.694043 0.719934 69.2704 101.071)" stroke="#AA2DCA"/>
<line y1="-0.5" x2="18.4141" y2="-0.5" transform="matrix(0.700886 0.713273 -0.694043 0.719934 68.6807 26.5369)" stroke="#AA2DCA"/>
<line y1="-0.5" x2="18.4141" y2="-0.5" transform="matrix(0.700886 0.713273 -0.694043 0.719934 69.5351 75.7477)" stroke="#AA2DCA"/>
<line y1="-0.5" x2="18.4141" y2="-0.5" transform="matrix(0.700886 0.713273 -0.694043 0.719934 69.6976 125.676)" stroke="#AA2DCA"/>
<line y1="-0.5" x2="17.944" y2="-0.5" transform="matrix(-0.694043 0.719934 -0.700886 -0.713273 81.1346 13.6184)" stroke="#AA2DCA"/>
<line y1="-0.5" x2="17.944" y2="-0.5" transform="matrix(-0.694043 0.719934 -0.700886 -0.713273 81.989 62.8292)" stroke="#AA2DCA"/>
<line y1="-0.5" x2="17.944" y2="-0.5" transform="matrix(-0.694043 0.719934 -0.700886 -0.713273 82.1516 112.758)" stroke="#AA2DCA"/>
<line y1="-0.5" x2="17.944" y2="-0.5" transform="matrix(-0.694043 0.719934 -0.700886 -0.713273 81.5619 38.2238)" stroke="#AA2DCA"/>
<line y1="-0.5" x2="17.944" y2="-0.5" transform="matrix(-0.694043 0.719934 -0.700886 -0.713273 82.4161 87.4346)" stroke="#AA2DCA"/>
<line y1="-0.5" x2="17.944" y2="-0.5" transform="matrix(-0.694043 0.719934 -0.700886 -0.713273 82.5786 137.363)" stroke="#AA2DCA"/>
<line y1="-0.5" x2="18.4141" y2="-0.5" transform="matrix(0.700886 0.713273 -0.694043 0.719934 12.0046 1.95297)" stroke="#AA2DCA"/>
<line y1="-0.5" x2="18.4141" y2="-0.5" transform="matrix(0.700886 0.713273 -0.694043 0.719934 12.859 51.1638)" stroke="#AA2DCA"/>
<line y1="-0.5" x2="18.4141" y2="-0.5" transform="matrix(0.700886 0.713273 -0.694043 0.719934 13.0215 101.092)" stroke="#AA2DCA"/>
<line y1="-0.5" x2="18.4141" y2="-0.5" transform="matrix(0.700886 0.713273 -0.694043 0.719934 12.4318 26.5584)" stroke="#AA2DCA"/>
<line y1="-0.5" x2="18.4141" y2="-0.5" transform="matrix(0.700886 0.713273 -0.694043 0.719934 13.2862 75.7692)" stroke="#AA2DCA"/>
<line y1="-0.5" x2="18.4141" y2="-0.5" transform="matrix(0.700886 0.713273 -0.694043 0.719934 13.4487 125.698)" stroke="#AA2DCA"/>
<line y1="-0.5" x2="17.944" y2="-0.5" transform="matrix(-0.694043 0.719934 -0.700886 -0.713273 24.8857 13.6399)" stroke="#AA2DCA"/>
<line y1="-0.5" x2="17.944" y2="-0.5" transform="matrix(-0.694043 0.719934 -0.700886 -0.713273 25.7401 62.8507)" stroke="#AA2DCA"/>
<line y1="-0.5" x2="17.944" y2="-0.5" transform="matrix(-0.694043 0.719934 -0.700886 -0.713273 25.9026 112.779)" stroke="#AA2DCA"/>
<line y1="-0.5" x2="17.944" y2="-0.5" transform="matrix(-0.694043 0.719934 -0.700886 -0.713273 25.3129 38.2453)" stroke="#AA2DCA"/>
<line y1="-0.5" x2="17.944" y2="-0.5" transform="matrix(-0.694043 0.719934 -0.700886 -0.713273 26.1674 87.4561)" stroke="#AA2DCA"/>
<line y1="-0.5" x2="17.944" y2="-0.5" transform="matrix(-0.694043 0.719934 -0.700886 -0.713273 26.3298 137.385)" stroke="#AA2DCA"/>
<line y1="-0.5" x2="18.4141" y2="-0.5" transform="matrix(0.700886 0.713273 -0.694043 0.719934 35.3961 2.90541)" stroke="#AA2DCA"/>
<line y1="-0.5" x2="18.4141" y2="-0.5" transform="matrix(0.700886 0.713273 -0.694043 0.719934 36.2504 52.1162)" stroke="#AA2DCA"/>
<line y1="-0.5" x2="18.4141" y2="-0.5" transform="matrix(0.700886 0.713273 -0.694043 0.719934 36.4129 102.045)" stroke="#AA2DCA"/>
<line y1="-0.5" x2="18.4141" y2="-0.5" transform="matrix(0.700886 0.713273 -0.694043 0.719934 35.8232 27.5108)" stroke="#AA2DCA"/>
<line y1="-0.5" x2="18.4141" y2="-0.5" transform="matrix(0.700886 0.713273 -0.694043 0.719934 36.6776 76.7216)" stroke="#AA2DCA"/>
<line y1="-0.5" x2="18.4141" y2="-0.5" transform="matrix(0.700886 0.713273 -0.694043 0.719934 36.8401 126.65)" stroke="#AA2DCA"/>
<line y1="-0.5" x2="17.944" y2="-0.5" transform="matrix(-0.694043 0.719934 -0.700886 -0.713273 48.2772 14.5923)" stroke="#AA2DCA"/>
<line y1="-0.5" x2="17.944" y2="-0.5" transform="matrix(-0.694043 0.719934 -0.700886 -0.713273 49.1315 63.8032)" stroke="#AA2DCA"/>
<line y1="-0.5" x2="17.944" y2="-0.5" transform="matrix(-0.694043 0.719934 -0.700886 -0.713273 49.2941 113.732)" stroke="#AA2DCA"/>
<line y1="-0.5" x2="17.944" y2="-0.5" transform="matrix(-0.694043 0.719934 -0.700886 -0.713273 48.7043 39.1978)" stroke="#AA2DCA"/>
<line y1="-0.5" x2="17.944" y2="-0.5" transform="matrix(-0.694043 0.719934 -0.700886 -0.713273 49.5588 88.4086)" stroke="#AA2DCA"/>
<line y1="-0.5" x2="17.944" y2="-0.5" transform="matrix(-0.694043 0.719934 -0.700886 -0.713273 49.7212 138.337)" stroke="#AA2DCA"/>
<line y1="-0.5" x2="18.4141" y2="-0.5" transform="matrix(0.700886 0.713273 -0.694043 0.719934 58.0378 2.60271)" stroke="#AA2DCA"/>
<line y1="-0.5" x2="18.4141" y2="-0.5" transform="matrix(0.700886 0.713273 -0.694043 0.719934 58.8922 51.8135)" stroke="#AA2DCA"/>
<line y1="-0.5" x2="18.4141" y2="-0.5" transform="matrix(0.700886 0.713273 -0.694043 0.719934 59.0546 101.742)" stroke="#AA2DCA"/>
<line y1="-0.5" x2="18.4141" y2="-0.5" transform="matrix(0.700886 0.713273 -0.694043 0.719934 58.465 27.2081)" stroke="#AA2DCA"/>
<line y1="-0.5" x2="18.4141" y2="-0.5" transform="matrix(0.700886 0.713273 -0.694043 0.719934 59.3193 76.4189)" stroke="#AA2DCA"/>
<line y1="-0.5" x2="18.4141" y2="-0.5" transform="matrix(0.700886 0.713273 -0.694043 0.719934 59.4818 126.347)" stroke="#AA2DCA"/>
<line y1="-0.5" x2="17.944" y2="-0.5" transform="matrix(-0.694043 0.719934 -0.700886 -0.713273 70.9189 14.2896)" stroke="#AA2DCA"/>
<line y1="-0.5" x2="17.944" y2="-0.5" transform="matrix(-0.694043 0.719934 -0.700886 -0.713273 71.7733 63.5005)" stroke="#AA2DCA"/>
<line y1="-0.5" x2="17.944" y2="-0.5" transform="matrix(-0.694043 0.719934 -0.700886 -0.713273 71.9358 113.429)" stroke="#AA2DCA"/>
<line y1="-0.5" x2="17.944" y2="-0.5" transform="matrix(-0.694043 0.719934 -0.700886 -0.713273 71.3461 38.8951)" stroke="#AA2DCA"/>
<line y1="-0.5" x2="17.944" y2="-0.5" transform="matrix(-0.694043 0.719934 -0.700886 -0.713273 72.2005 88.1059)" stroke="#AA2DCA"/>
<line y1="-0.5" x2="17.944" y2="-0.5" transform="matrix(-0.694043 0.719934 -0.700886 -0.713273 72.3629 138.034)" stroke="#AA2DCA"/>
<line y1="-0.5" x2="18.4141" y2="-0.5" transform="matrix(0.700886 0.713273 -0.694043 0.719934 79.9491 2.30977)" stroke="#AA2DCA"/>
<line y1="-0.5" x2="18.4141" y2="-0.5" transform="matrix(0.700886 0.713273 -0.694043 0.719934 80.8035 51.5206)" stroke="#AA2DCA"/>
<line y1="-0.5" x2="18.4141" y2="-0.5" transform="matrix(0.700886 0.713273 -0.694043 0.719934 80.966 101.449)" stroke="#AA2DCA"/>
<line y1="-0.5" x2="18.4141" y2="-0.5" transform="matrix(0.700886 0.713273 -0.694043 0.719934 80.3763 26.9152)" stroke="#AA2DCA"/>
<line y1="-0.5" x2="18.4141" y2="-0.5" transform="matrix(0.700886 0.713273 -0.694043 0.719934 81.2307 76.126)" stroke="#AA2DCA"/>
<line y1="-0.5" x2="18.4141" y2="-0.5" transform="matrix(0.700886 0.713273 -0.694043 0.719934 81.3932 126.055)" stroke="#AA2DCA"/>
<line y1="-0.5" x2="17.944" y2="-0.5" transform="matrix(-0.694043 0.719934 -0.700886 -0.713273 92.8303 13.9967)" stroke="#AA2DCA"/>
<line y1="-0.5" x2="17.944" y2="-0.5" transform="matrix(-0.694043 0.719934 -0.700886 -0.713273 93.6846 63.2075)" stroke="#AA2DCA"/>
<line y1="-0.5" x2="17.944" y2="-0.5" transform="matrix(-0.694043 0.719934 -0.700886 -0.713273 93.8471 113.136)" stroke="#AA2DCA"/>
<line y1="-0.5" x2="17.944" y2="-0.5" transform="matrix(-0.694043 0.719934 -0.700886 -0.713273 93.2574 38.6021)" stroke="#AA2DCA"/>
<line y1="-0.5" x2="17.944" y2="-0.5" transform="matrix(-0.694043 0.719934 -0.700886 -0.713273 94.1118 87.8129)" stroke="#AA2DCA"/>
<line y1="-0.5" x2="17.944" y2="-0.5" transform="matrix(-0.694043 0.719934 -0.700886 -0.713273 94.2742 137.741)" stroke="#AA2DCA"/>
</g>
</svg>
